<?xml version="1.0" encoding="utf-8"?>
<!-- Generator: Adobe Illustrator 27.5.0, SVG Export Plug-In . SVG Version: 6.00 Build 0)  -->
<svg version="1.1" id="Layer_1" xmlns="http://www.w3.org/2000/svg" xmlns:xlink="http://www.w3.org/1999/xlink" x="0px" y="0px"
	 viewBox="0 0 35 27" style="enable-background:new 0 0 35 27;" xml:space="preserve">
<style type="text/css">
	.st0{fill:#020A2D;}
</style>
<path class="st0" d="M28.1,14.6v7.2l-9.1,3.4C18.9,25.2,28.1,14.6,28.1,14.6z M6.9,21.8v-7.2l9.1,10.6C16.1,25.2,6.9,21.8,6.9,21.8z
	 M6.1,14.6v6.9l-4.5-1.7C1.6,19.9,6.1,14.6,6.1,14.6z M6,13.5l-4.7,5.4V8.1L6,13.5z M6.1,5.5v6.9L1.6,7.1L6.1,5.5L6.1,5.5z
	 M28.9,12.3V5.5l4.5,1.7L28.9,12.3z M33.4,19.8l-4.5,1.7v-6.9L33.4,19.8z M18.9,1.8L28,5.1v7.2L18.9,1.8z M6.9,12.3V5.1l9.1-3.4
	L6.9,12.3z M17.5,25.5l-10.4-12l10.4-12l10.4,12L17.5,25.5L17.5,25.5z M33.7,18.9l-4.7-5.4l4.7-5.4C33.7,8.1,33.7,18.9,33.7,18.9z
	 M34.6,6.9C34.6,6.9,34.6,6.9,34.6,6.9c0-0.2-0.1-0.2-0.1-0.3c0,0,0,0,0,0c0,0-0.1,0-0.1-0.1L17.6,0.4l0,0l0,0l0,0l0,0c0,0,0,0,0,0
	c0,0,0,0,0,0l0,0l0,0c0,0,0,0,0,0c0,0,0,0,0,0l0,0l0,0c0,0,0,0,0,0c0,0,0,0,0,0l0,0l0,0c0,0,0,0,0,0c0,0,0,0,0,0l0,0l0,0
	c0,0,0,0,0,0c0,0,0,0,0,0l0,0l0,0c0,0,0,0,0,0c0,0,0,0,0,0l0,0l0,0c0,0,0,0,0,0c0,0,0,0,0,0l0,0l0,0l0,0l0,0L0.7,6.5
	c0,0-0.1,0-0.1,0.1c0,0,0,0-0.1,0C0.5,6.7,0.4,6.8,0.4,6.9c0,0,0,0.1,0,0.1c0,0,0,0,0,0V20c0,0.2,0.1,0.3,0.3,0.4l16.6,6.1
	c0,0,0.1,0,0.1,0c0,0,0,0,0,0c0,0,0,0,0,0l0,0l0,0c0,0,0,0,0,0c0,0,0,0,0,0c0,0,0.1,0,0.1,0l16.6-6.1c0.2-0.1,0.3-0.2,0.3-0.4
	L34.6,6.9C34.6,6.9,34.6,6.9,34.6,6.9"/>
</svg>
