<?xml version="1.0" encoding="UTF-8"?>
<svg id="Layer_1" data-name="Layer 1" xmlns="http://www.w3.org/2000/svg" xmlns:xlink="http://www.w3.org/1999/xlink" viewBox="0 0 54 41">
  <defs>
    <style>
      .cls-1 {
        clip-path: url(#clippath);
      }

      .cls-2 {
        fill: none;
      }

      .cls-2, .cls-3 {
        stroke-width: 0px;
      }

      .cls-3 {
        fill: #fff;
      }
    </style>
    <clipPath id="clippath">
      <rect class="cls-2" x="-1475.54" y="-11.03" width="1386" height="721.13"/>
    </clipPath>
  </defs>
  <g class="cls-1">
    <image width="3968" height="2976" transform="translate(-1582.75 -107.32) scale(.41)" xlink:href="../Links/robert-bye-7baQ2b019NY-unsplash.jpg"/>
  </g>
  <path class="cls-3" d="m43.41,22.28v11.19s-14.21,5.25-14.21,5.25l14.21-16.44Zm-32.81,11.19v-11.19s14.21,16.44,14.21,16.44l-14.21-5.25Zm-1.33-11.17v10.68s-7-2.59-7-2.59l7-8.09Zm-.21-1.8L1.8,28.88V12.1l7.26,8.39Zm.21-12.48v10.68S2.26,10.6,2.26,10.6l7-2.58Zm35.48,10.68v-10.68s7,2.58,7,2.58l-7,8.09Zm7,11.69l-7,2.59v-10.68s7,8.09,7,8.09ZM29.2,2.28l14.21,5.24v11.19S29.2,2.28,29.2,2.28ZM10.59,18.71V7.53s14.21-5.24,14.21-5.24l-14.21,16.43Zm16.41,20.5L10.82,20.49,27,1.78l16.18,18.71-16.18,18.72Zm25.2-10.33l-7.26-8.39,7.26-8.39v16.79Zm1.33-18.6s0-.08-.01-.12c-.03-.12-.09-.24-.18-.33-.02-.02-.05-.05-.08-.06-.05-.04-.11-.07-.17-.09L27.24.14s0,0,0,0h0s0,0,0,0c0,0,0,0,0,0,0,0-.01,0-.02,0,0,0-.01,0-.02,0,0,0,0,0-.01,0,0,0,0,0,0,0,0,0-.01,0-.02,0,0,0-.01,0-.02,0,0,0,0,0-.01,0,0,0,0,0-.01,0,0,0-.01,0-.02,0,0,0-.01,0-.02,0,0,0,0,0-.01,0,0,0,0,0-.01,0,0,0-.01,0-.02,0,0,0-.01,0-.02,0,0,0,0,0-.01,0,0,0,0,0-.01,0,0,0-.01,0-.02,0,0,0-.01,0-.02,0,0,0,0,0-.01,0,0,0,0,0-.01,0,0,0-.02,0-.02,0,0,0-.01,0-.02,0,0,0,0,0,0,0,0,0,0,0-.01,0,0,0-.02,0-.02,0,0,0-.01,0-.02,0,0,0,0,0,0,0,0,0,0,0,0,0h0s0,0,0,0L.91,9.68c-.06.02-.12.05-.17.09-.03.02-.05.04-.08.07-.1.09-.16.21-.18.34,0,.04-.01.08-.01.12,0,0,0,.02,0,.03v20.37c0,.28.17.53.44.63l25.83,9.54c.07.03.14.05.21.05.01,0,.03,0,.04,0,0,0,.01,0,.02,0,0,0,0,0,0,0,0,0,0,0,0,0,0,0,.01,0,.02,0,.01,0,.03,0,.04,0,.07,0,.14-.03.21-.05l25.83-9.54c.26-.1.44-.35.44-.63V10.31s0-.02,0-.03"/>
</svg>