<?xml version="1.0" encoding="UTF-8"?>
<svg id="Layer_1" data-name="Layer 1" xmlns="http://www.w3.org/2000/svg" viewBox="0 0 26 20">
  <defs>
    <style>
      .cls-1 {
        fill: #fff;
      }

      .cls-1, .cls-2 {
        stroke-width: 0px;
      }

      .cls-2 {
        fill: #f01e5a;
      }
    </style>
  </defs>
  <path class="cls-2" d="m24.04,5.46H3.81c-.97,0-1.76-.79-1.76-1.76s.79-1.76,1.76-1.76h20.23c.97,0,1.76.79,1.76,1.76s-.79,1.76-1.76,1.76Z"/>
  <path class="cls-2" d="m13,18.06H1.96c-.97,0-1.76-.79-1.76-1.76s.79-1.76,1.76-1.76h11.05c.97,0,1.76.79,1.76,1.76s-.79,1.76-1.76,1.76Z"/>
  <path class="cls-1" d="m5.57,3.7c0-.97-.79-1.76-1.76-1.76s-1.76.79-1.76,1.76.79,1.76,1.76,1.76,1.76-.79,1.76-1.76Z"/>
  <path class="cls-2" d="m3.81.27C1.92.27.39,1.81.39,3.7s1.54,3.42,3.42,3.42,3.42-1.54,3.42-3.42S5.7.27,3.81.27Zm0,5.19c-.97,0-1.76-.79-1.76-1.76s.79-1.76,1.76-1.76,1.76.79,1.76,1.76-.79,1.76-1.76,1.76Z"/>
  <g>
    <path class="cls-1" d="m14.76,16.3c0-.97-.79-1.76-1.76-1.76s-1.76.79-1.76,1.76.79,1.76,1.76,1.76,1.76-.79,1.76-1.76Z"/>
    <path class="cls-2" d="m13,12.88c-1.89,0-3.42,1.54-3.42,3.42s1.54,3.42,3.42,3.42,3.42-1.54,3.42-3.42-1.54-3.42-3.42-3.42Zm0,5.19c-.97,0-1.76-.79-1.76-1.76s.79-1.76,1.76-1.76,1.76.79,1.76,1.76-.79,1.76-1.76,1.76Z"/>
    <path class="cls-1" d="m24.04,14.54h-8.12c.31.52.5,1.11.5,1.76s-.19,1.25-.5,1.76h8.12c.97,0,1.76-.79,1.76-1.76s-.79-1.76-1.76-1.76Z"/>
  </g>
</svg>