<?xml version="1.0" encoding="UTF-8"?>
<svg id="Layer_1" data-name="Layer 1" xmlns="http://www.w3.org/2000/svg" viewBox="0 0 120 14">
  <defs>
    <style>
      .cls-1 {
        fill: #fff;
        stroke-width: 0px;
      }
    </style>
  </defs>
  <path class="cls-1" d="m4.77,3.98l-.36,1.46c.32-.04.48-.06.69-.06,1.82,0,3.18,1.39,3.18,3.25,0,1.98-1.5,3.35-3.66,3.35-1.22,0-2.14-.38-2.99-1.22l.6-1.58c.7.81,1.44,1.19,2.34,1.19,1.04,0,1.88-.8,1.88-1.79,0-1.05-.94-1.88-2.13-1.88-.64,0-1.22.2-1.79.6h-.1l1.11-4.91h4.32v1.58h-3.08Z"/>
  <path class="cls-1" d="m11.29,8.79c0,.98.76,1.75,1.72,1.75s1.72-.77,1.72-1.75-.76-1.74-1.72-1.74-1.72.78-1.72,1.74m3.49-5.8l-2.21,2.85c.45-.18.69-.24,1.09-.24,1.64,0,2.9,1.35,2.9,3.1,0,1.95-1.46,3.29-3.56,3.29s-3.53-1.33-3.53-3.25c0-.85.43-1.92,1.18-2.92l2.85-3.8,1.29.97Z"/>
  <path class="cls-1" d="m20.63,3.98l-.36,1.46c.32-.04.48-.06.69-.06,1.82,0,3.18,1.39,3.18,3.25,0,1.98-1.5,3.35-3.66,3.35-1.22,0-2.14-.38-2.99-1.22l.6-1.58c.7.81,1.44,1.19,2.34,1.19,1.04,0,1.88-.8,1.88-1.79,0-1.05-.94-1.88-2.13-1.88-.64,0-1.22.2-1.79.6h-.1l1.11-4.91h4.32v1.58h-3.08Z"/>
  <path class="cls-1" d="m29.84,4.92l-2.41,3.71h2.41v-3.71Zm2.8,3.71v1.46h-1.11v1.65h-1.7v-1.65h-4.57v-.81l4.63-7.05h1.64v6.4h1.11Z"/>
  <path class="cls-1" d="m42.58,4.41c0-.56-.39-.92-.98-.92-.5,0-.9.39-.9.88,0,.38.1.55.81,1.39.8-.53,1.07-.87,1.07-1.35m-1.71,3.1c-1,.66-1.32,1.04-1.32,1.53,0,.71.63,1.3,1.39,1.3.52,0,1-.22,1.7-.8l-1.77-2.03Zm3.06.98c.52-.5.81-.84,1.15-1.29l1.08,1.05c-.31.41-.41.52-1.22,1.35l1.89,2.14h-2.26l-.92-1.05c-1.08.88-1.99,1.26-3,1.26-1.7,0-2.93-1.14-2.93-2.7,0-.6.22-1.21.63-1.67.34-.38.28-.34,1.35-.97.04-.03.14-.08.25-.15-.7-.77-.95-1.3-.95-1.96,0-1.35,1.07-2.31,2.55-2.31s2.55.95,2.55,2.23c0,.91-.52,1.61-1.71,2.31l1.54,1.77Z"/>
  <path class="cls-1" d="m57.97,4.9c-.76-.74-1.42-1.05-2.28-1.05-1.71,0-3.06,1.42-3.06,3.21,0,1.89,1.3,3.22,3.14,3.22.83,0,1.47-.29,2.2-1.02v2.14c-.83.39-1.5.55-2.28.55-2.77,0-4.93-2.13-4.93-4.88s2.21-4.89,4.98-4.89c.78,0,1.44.17,2.24.57v2.14Z"/>
  <path class="cls-1" d="m60.98,7.06c0,1.78,1.4,3.22,3.13,3.22s3.11-1.44,3.11-3.22-1.39-3.21-3.11-3.21-3.13,1.44-3.13,3.21m8.11,0c0,2.75-2.2,4.89-4.99,4.89s-5-2.12-5-4.86,2.2-4.91,5-4.91,4.99,2.14,4.99,4.88"/>
  <polygon class="cls-1" points="71.78 2.23 73.02 2.23 75.57 8.34 78.22 2.23 79.48 2.23 81.04 11.74 79.2 11.74 78.36 5.98 75.8 11.87 75.29 11.87 72.81 5.98 71.87 11.74 70.04 11.74 71.78 2.23"/>
  <path class="cls-1" d="m85.72,6.7c1.15,0,1.71-.45,1.71-1.37s-.57-1.35-1.82-1.35h-.63v2.72h.74Zm-.74,5.05h-1.82V2.4h2.73c1.22,0,1.88.2,2.47.71.6.53.95,1.36.95,2.21,0,1.89-1.14,2.96-3.15,2.96h-1.18v3.46Z"/>
  <path class="cls-1" d="m93.79,4.93l-1.36,3.36h2.66l-1.3-3.36Zm-1.95,4.84l-.84,1.98h-1.93l4.05-9.54h1.37l3.92,9.54h-1.95l-.8-1.98h-3.83Z"/>
  <polygon class="cls-1" points="99.95 2.19 99.95 11.74 101.78 11.74 101.78 5.42 107.47 11.93 108.73 11.93 108.73 2.4 106.91 2.4 106.91 8.69 101.22 2.19 99.95 2.19"/>
  <polygon class="cls-1" points="116.2 2.4 114.22 5.65 112.2 2.4 110.05 2.4 113.27 7.46 113.27 11.74 115.09 11.74 115.09 7.46 118.37 2.4 116.2 2.4"/>
</svg>