<?xml version="1.0" encoding="UTF-8"?>
<svg id="Layer_1" data-name="Layer 1" xmlns="http://www.w3.org/2000/svg" viewBox="0 0 35 27">
  <defs>
    <style>
      .cls-1 {
        fill: #fff;
        stroke-width: 0px;
      }
    </style>
  </defs>
  <path class="cls-1" d="m28.06,14.64v7.2s-9.14,3.38-9.14,3.38l9.14-10.58Zm-21.11,7.2v-7.2s9.14,10.58,9.14,10.58l-9.14-3.38Zm-.86-7.19v6.87s-4.5-1.66-4.5-1.66l4.5-5.21Zm-.13-1.16l-4.67,5.4v-10.8l4.67,5.4Zm.13-8.03v6.87S1.58,7.13,1.58,7.13l4.5-1.66Zm22.83,6.87v-6.87s4.5,1.66,4.5,1.66l-4.5,5.21Zm4.5,7.52l-4.5,1.66v-6.87s4.5,5.21,4.5,5.21ZM18.91,1.78l9.14,3.37v7.2S18.91,1.78,18.91,1.78ZM6.94,12.35v-7.2s9.14-3.37,9.14-3.37L6.94,12.35Zm10.56,13.19L7.09,13.5,17.5,1.46l10.41,12.04-10.41,12.05Zm16.22-6.65l-4.67-5.4,4.67-5.4v10.8Zm.86-11.97s0-.05,0-.08c-.02-.08-.06-.15-.12-.22-.02-.02-.03-.03-.05-.04-.03-.03-.07-.04-.11-.06L17.65.4s0,0,0,0h0s0,0,0,0c0,0,0,0,0,0,0,0,0,0-.01,0,0,0,0,0-.01,0,0,0,0,0,0,0,0,0,0,0,0,0,0,0,0,0-.01,0,0,0,0,0-.01,0,0,0,0,0,0,0,0,0,0,0,0,0,0,0,0,0-.01,0,0,0,0,0-.01,0,0,0,0,0,0,0,0,0,0,0,0,0,0,0,0,0-.01,0,0,0,0,0-.01,0,0,0,0,0,0,0,0,0,0,0,0,0,0,0,0,0-.01,0,0,0,0,0-.01,0,0,0,0,0,0,0,0,0,0,0,0,0,0,0,0,0-.01,0,0,0,0,0-.01,0,0,0,0,0,0,0,0,0,0,0,0,0,0,0-.01,0-.02,0,0,0,0,0-.01,0,0,0,0,0,0,0,0,0,0,0,0,0h0s0,0,0,0L.71,6.54s-.08.03-.11.06c-.02.01-.03.03-.05.04-.06.06-.1.14-.12.22,0,.02,0,.05,0,.07,0,0,0,.01,0,.02v13.1c0,.18.11.34.28.4l16.62,6.14s.09.03.14.04c0,0,.02,0,.03,0,0,0,0,0,.01,0,0,0,0,0,0,0,0,0,0,0,0,0,0,0,0,0,.01,0,0,0,.02,0,.03,0,.05,0,.09-.02.14-.04l16.62-6.14c.17-.06.28-.22.28-.4V6.94s0-.01,0-.02"/>
</svg>