<?xml version="1.0" encoding="UTF-8"?>
<svg id="Layer_1" data-name="Layer 1" xmlns="http://www.w3.org/2000/svg" viewBox="0 0 90 76">
  <defs>
    <style>
      .cls-1 {
        fill: #fff;
        stroke-width: 0px;
      }
    </style>
  </defs>
  <path class="cls-1" d="m52.65,10.12l-11.62,11.61-3.71-3.71c-1.5-1.5-3.75.75-2.25,2.25l4.84,4.83c.3.3.7.47,1.12.47s.83-.17,1.13-.47l12.74-12.74c.67-.61.7-1.66.05-2.31-.65-.64-1.69-.62-2.31.06h0Zm0,0"/>
  <path class="cls-1" d="m89.57,46.16c0-.06,0-.12,0-.18,0-.05,0-.11,0-.16,0-.03,0-.07,0-.11l-9.55-25.47c-.24-.66-.89-1.08-1.59-1.04h-11.14V1.69c0-.88-.71-1.59-1.59-1.59H24.3c-.88,0-1.59.71-1.59,1.59v17.51h-11.14c-.66,0-1.26.42-1.49,1.04L.53,45.71s0,.07,0,.11c-.02.05-.03.11-.04.16,0,.06,0,.12,0,.18l-.06.1v28.04c0,2.12,3.18,2.12,3.18,0v-26.45h82.79v26.45c0,2.12,3.18,2.12,3.18,0v-28.14h0ZM25.89,3.28h38.21v28.66H25.89V3.28Zm-13.22,19.1h10.04v9.55h-4.78c-2.12,0-2.12,3.18,0,3.18h54.13c2.12,0,2.12-3.18,0-3.18h-4.78v-9.55h10.04l8.36,22.29H4.31l8.36-22.29Zm0,0"/>
</svg>